<svg version="1.1" id="Layer_1" xmlns="http://www.w3.org/2000/svg" xmlns:xlink="http://www.w3.org/1999/xlink" x="0px" y="0px"
	 viewBox="0 0 142 66.8" style="enable-background:new 0 0 142 66.8;" xml:space="preserve" width="145px" height="68px" preserveAspectRatio="xMinYMid">
<style type="text/css">
	.st0{fill:#0877D5;}
	.st1{fill:#DB261E;}
</style>
<g>
	<g>
		<path class="st0" d="M70.1,37h3.1c-0.1-0.2-0.1-0.4-0.1-0.6V26.2c0-0.1,0-0.1,0-0.1h-2.9c0,0,0,0.1,0,0.1v10.2
			C70.2,36.6,70.2,36.8,70.1,37z"/>
		<path class="st0" d="M76.5,37h3.6c-0.1-0.2-0.1-0.4-0.1-0.6V26.2c0-0.1,0-0.1,0-0.1h-3.4c0,0,0,0.1,0,0.1v10.2
			C76.6,36.6,76.6,36.8,76.5,37z"/>
		<path class="st0" d="M63.1,37h3.6c-0.1-0.2-0.1-0.4-0.1-0.6V26.2c0-0.1,0-0.1,0-0.1h-3.4c0,0,0,0.1,0,0.1v10.2
			C63.2,36.6,63.2,36.8,63.1,37z"/>
		<path class="st0" d="M88.9,40.9c4.2-4.3,6.8-10.3,6.8-16.8C95.7,10.8,84.9,0,71.6,0C58.2,0,47.4,10.8,47.4,24.1
			c0,6.5,2.6,12.4,6.8,16.8H88.9z M69.7,9.9V8.6c0-1,0.8-1.8,1.8-1.8h0c1,0,1.8,0.8,1.8,1.8v1.2C79.3,10.6,84,15.7,84,22H59.5
			C59.5,15.9,63.9,10.9,69.7,9.9z M59.6,36.4V26.2c0-0.1,0-0.1,0-0.1H58c-0.6,0-1.1-0.5-1.1-1.1c0-0.6,0.5-1.1,1.1-1.1h27.2
			c0.6,0,1.1,0.5,1.1,1.1c0,0.6-0.5,1.1-1.1,1.1h-1.6c0,0,0,0.1,0,0.1v10.2c0,0.2,0,0.4-0.1,0.6h1.7c0.6,0,1.1,0.5,1.1,1.1
			c0,0.6-0.5,1.1-1.1,1.1H58c-0.6,0-1.1-0.5-1.1-1.1c0-0.6,0.5-1.1,1.1-1.1h1.7C59.7,36.8,59.6,36.6,59.6,36.4z"/>
		<path class="st0" d="M61.5,46.1c3.1,1.4,6.5,2.2,10.1,2.2c3.6,0,7-0.8,10.1-2.2H61.5z"/>
	</g>
	<g>
		<path class="st0" d="M40.7,43.9c-3.3,1.1-9.6,2.6-15.4,2.6c-8.8,0-14.8-2.2-18.9-6.1C2.2,36.5,0,30.7,0,24.2
			C0.1,8.7,11.6,0.8,26.2,0.8c6.1,0,10.6,1.1,13,2.2l-2.4,9.6c-2.5-1.1-5.5-1.9-10.6-1.9c-7.4,0-13.5,3.9-13.5,13
			c0,8.4,5.4,13.2,12.8,13.2c1.6,0,3.2-0.2,3.7-0.4v-7.7h-6v-9.3h17.6V43.9z"/>
	</g>
	<g>
		<path class="st0" d="M113.1,46.1L98.9,1.2H112l4.7,17.6c1.5,5,2.7,9.9,3.7,15.7h0.1c1.1-5.5,2.4-10.7,3.7-15.5l4.9-17.8H142
			l-14.7,44.8H113.1z"/>
	</g>
</g>
<g>
	<path class="st1" d="M5.8,63.1l3.9-9.7l3.9,9.7l3.2-9.1h1.5l-4.7,12.8L9.7,57l-3.9,9.8L1.1,54h1.5L5.8,63.1z"/>
	<path class="st1" d="M26.2,54h6.3v1.3h-4.9v3.6h4.8v1.3h-4.8v4.8h4.9v1.3h-6.3V54z"/>
	<path class="st1" d="M41.2,54h2c2.2,0,4.1,0.8,4.1,3.3c0,1-0.4,1.8-1.2,2.4c1.4,0.4,2.3,1.7,2.3,3.1c0,2.4-1.9,3.4-4.3,3.4h-2.8V54
		z M42.6,59.3h0.5c1.5,0,2.8-0.2,2.8-2.1c0-1.8-1.2-2-2.8-2h-0.5V59.3z M42.6,64.9h1.4c1.5,0,3.1-0.4,3.1-2.2c0-1.9-1.8-2.2-3.3-2.2
		h-1.2V64.9z"/>
	<path class="st1" d="M60.4,63.1l3.9-9.7l3.9,9.7l3.2-9.1H73l-4.7,12.8L64.4,57l-3.9,9.8L55.8,54h1.5L60.4,63.1z"/>
	<path class="st1" d="M92.9,60.1c0,3.5-2.9,6.3-6.3,6.3c-3.5,0-6.3-2.8-6.3-6.3c0-3.5,2.9-6.3,6.3-6.3C90,53.8,92.9,56.6,92.9,60.1z
		 M81.6,60.1c0,2.7,2.2,5,5,5c2.8,0,5-2.3,5-5c0-2.8-2.2-5-5-5C83.7,55,81.6,57.3,81.6,60.1z"/>
	<path class="st1" d="M102.5,66.1h-1.4V54h1.8c2.3,0,4.4,0.6,4.4,3.4c0,1.9-1.2,3.2-3,3.3l3.9,5.4h-1.7l-3.7-5.3h-0.3V66.1z
		 M102.5,59.6h0.4c1.5,0,3.1-0.3,3.1-2.2c0-2-1.5-2.2-3.1-2.2h-0.4V59.6z"/>
	<path class="st1" d="M122.8,54h1.8l-5.7,5.7l5.9,6.5H123l-5-5.6l-0.3,0.3v5.2h-1.4V54h1.4v5.2L122.8,54z"/>
	<path class="st1" d="M138.1,56.3c-0.5-0.8-1.1-1.3-2.1-1.3c-1.1,0-2,0.8-2,1.9c0,1,1.1,1.5,1.9,1.9l0.8,0.4
		c1.6,0.7,2.9,1.5,2.9,3.4c0,2.1-1.7,3.8-3.8,3.8c-1.9,0-3.4-1.3-3.8-3.1l1.3-0.4c0.2,1.2,1.1,2.3,2.4,2.3c1.3,0,2.5-1,2.5-2.4
		c0-1.4-1.1-1.9-2.2-2.4l-0.7-0.3c-1.4-0.6-2.6-1.4-2.6-3.1c0-1.9,1.6-3.1,3.4-3.1c1.4,0,2.5,0.7,3.1,1.9L138.1,56.3z"/>
</g>
</svg>
