<svg id="svg" xmlns="http://www.w3.org/2000/svg" xmlns:xlink="http://www.w3.org/1999/xlink" width="120" height="120" viewBox="0, 0, 120,120"><g id="svgg"><path id="path3" d="M153.875 142.448 C 154.035 142.490,154.298 142.490,154.458 142.448 C 154.619 142.406,154.487 142.372,154.167 142.372 C 153.846 142.372,153.715 142.406,153.875 142.448 M218.375 142.448 C 218.535 142.490,218.798 142.490,218.958 142.448 C 219.119 142.406,218.987 142.372,218.667 142.372 C 218.346 142.372,218.215 142.406,218.375 142.448 " stroke="none" fill="#7474ac" fill-rule="evenodd"></path><path id="path4" d="M168.708 142.115 C 168.869 142.157,169.131 142.157,169.292 142.115 C 169.452 142.073,169.321 142.039,169.000 142.039 C 168.679 142.039,168.548 142.073,168.708 142.115 M203.375 142.115 C 203.535 142.157,203.798 142.157,203.958 142.115 C 204.119 142.073,203.987 142.039,203.667 142.039 C 203.346 142.039,203.215 142.073,203.375 142.115 M159.875 142.288 C 160.219 142.324,160.781 142.324,161.125 142.288 C 161.469 142.252,161.188 142.223,160.500 142.223 C 159.813 142.223,159.531 142.252,159.875 142.288 M211.621 142.287 C 211.917 142.324,212.442 142.324,212.788 142.288 C 213.134 142.252,212.892 142.222,212.250 142.221 C 211.608 142.221,211.325 142.250,211.621 142.287 M152.625 142.451 C 152.831 142.491,153.169 142.491,153.375 142.451 C 153.581 142.411,153.412 142.379,153.000 142.379 C 152.587 142.379,152.419 142.411,152.625 142.451 M219.460 142.451 C 219.668 142.491,219.968 142.490,220.127 142.448 C 220.286 142.406,220.117 142.374,219.750 142.375 C 219.383 142.377,219.253 142.411,219.460 142.451 M144.627 142.618 C 144.834 142.658,145.134 142.656,145.294 142.615 C 145.453 142.573,145.283 142.540,144.917 142.542 C 144.550 142.544,144.420 142.578,144.627 142.618 M227.627 142.618 C 227.834 142.658,228.134 142.656,228.294 142.615 C 228.453 142.573,228.283 142.540,227.917 142.542 C 227.550 142.544,227.420 142.578,227.627 142.618 M136.460 142.785 C 136.668 142.824,136.968 142.823,137.127 142.781 C 137.286 142.739,137.117 142.707,136.750 142.709 C 136.383 142.711,136.253 142.745,136.460 142.785 M235.794 142.785 C 236.001 142.824,236.301 142.823,236.460 142.781 C 236.620 142.739,236.450 142.707,236.083 142.709 C 235.717 142.711,235.586 142.745,235.794 142.785 M127.455 142.954 C 127.750 142.990,128.275 142.991,128.621 142.955 C 128.967 142.919,128.725 142.889,128.083 142.888 C 127.442 142.887,127.159 142.917,127.455 142.954 M244.042 142.955 C 244.385 142.991,244.948 142.991,245.292 142.955 C 245.635 142.919,245.354 142.889,244.667 142.889 C 243.979 142.889,243.698 142.919,244.042 142.955 M119.463 143.122 C 119.855 143.157,120.455 143.157,120.796 143.121 C 121.137 143.085,120.817 143.057,120.083 143.057 C 119.350 143.058,119.071 143.087,119.463 143.122 M252.042 143.121 C 252.385 143.157,252.948 143.157,253.292 143.121 C 253.635 143.085,253.354 143.056,252.667 143.056 C 251.979 143.056,251.698 143.085,252.042 143.121 M300.609 201.625 C 300.566 201.694,302.043 201.731,303.891 201.707 C 310.281 201.626,310.896 201.571,305.802 201.536 C 302.988 201.516,300.651 201.556,300.609 201.625 M85.909 226.083 C 85.909 229.383,85.931 230.757,85.958 229.136 C 85.985 227.515,85.985 224.815,85.958 223.136 C 85.931 221.457,85.909 222.783,85.909 226.083 M256.246 285.667 C 256.246 292.679,256.266 295.548,256.292 292.042 C 256.317 288.535,256.317 282.798,256.292 279.292 C 256.266 275.785,256.246 278.654,256.246 285.667 M85.833 287.383 L 85.916 293.417 85.960 287.511 C 85.985 284.262,85.947 281.547,85.877 281.477 C 85.807 281.407,85.787 284.065,85.833 287.383 M277.385 294.458 C 278.835 294.486,281.160 294.486,282.552 294.458 C 283.944 294.430,282.758 294.407,279.917 294.407 C 277.075 294.408,275.936 294.430,277.385 294.458 M148.211 297.953 C 148.464 297.991,148.839 297.990,149.044 297.951 C 149.249 297.911,149.042 297.880,148.583 297.881 C 148.125 297.882,147.957 297.915,148.211 297.953 M150.377 297.953 C 150.631 297.991,151.006 297.990,151.211 297.951 C 151.416 297.911,151.208 297.880,150.750 297.881 C 150.292 297.882,150.124 297.915,150.377 297.953 " stroke="none" fill="#6464a4" fill-rule="evenodd"></path><path id="path0" d="M186.333 94.019 C 186.333 94.060,185.953 95.179,185.488 96.505 C 185.023 97.832,183.027 103.567,181.053 109.250 C 179.078 114.933,176.940 121.083,176.301 122.917 C 175.662 124.750,174.854 127.075,174.505 128.083 C 171.703 136.181,169.645 142.077,169.609 142.113 C 169.585 142.137,163.532 142.270,156.158 142.407 C 140.043 142.709,127.024 142.989,122.211 143.140 L 118.671 143.250 122.127 145.874 C 133.429 154.455,151.665 168.275,155.118 170.877 C 157.337 172.549,159.156 174.013,159.160 174.130 C 159.164 174.247,158.560 176.347,157.819 178.797 C 157.078 181.246,156.098 184.487,155.642 186.000 C 155.186 187.512,154.448 189.950,154.003 191.417 C 153.557 192.883,152.581 196.108,151.833 198.583 C 149.845 205.162,148.437 209.814,147.748 212.083 C 147.414 213.183,146.664 215.658,146.082 217.583 C 145.499 219.508,144.908 221.455,144.768 221.909 C 144.627 222.363,144.533 222.755,144.557 222.780 C 144.582 222.805,148.011 220.453,152.176 217.554 C 156.342 214.655,162.412 210.430,165.667 208.167 C 168.921 205.903,173.721 202.563,176.333 200.743 C 187.946 192.655,186.210 193.617,187.531 194.540 C 188.110 194.945,191.171 197.074,194.333 199.272 C 204.951 206.651,221.554 218.205,224.879 220.530 C 226.692 221.797,228.201 222.833,228.232 222.833 C 228.264 222.833,227.807 221.240,227.219 219.292 C 226.630 217.344,225.434 213.387,224.561 210.500 C 221.808 201.394,220.830 198.161,219.997 195.417 C 218.698 191.138,217.547 187.335,216.415 183.583 C 215.834 181.658,214.948 178.733,214.446 177.083 C 213.944 175.433,213.582 174.033,213.642 173.971 C 213.701 173.908,216.975 171.413,220.917 168.426 C 224.858 165.438,230.446 161.201,233.333 159.010 C 240.982 153.206,246.956 148.679,250.780 145.791 L 254.142 143.250 250.613 143.140 C 245.924 142.993,233.105 142.716,216.673 142.408 C 206.801 142.222,203.231 142.104,203.142 141.960 C 203.037 141.790,201.646 137.826,199.326 131.083 C 198.979 130.075,198.194 127.825,197.580 126.083 C 196.967 124.342,196.367 122.617,196.246 122.250 C 196.126 121.883,195.504 120.083,194.864 118.250 C 192.583 111.713,187.952 98.380,187.225 96.257 C 186.577 94.363,186.333 93.751,186.333 94.019 M300.522 202.208 C 300.428 202.506,300.080 203.725,299.749 204.917 C 299.417 206.108,298.968 207.721,298.751 208.500 C 298.533 209.279,298.055 211.004,297.688 212.333 C 297.320 213.662,296.634 216.137,296.162 217.833 C 295.690 219.529,295.044 221.854,294.725 223.000 C 293.585 227.101,293.352 227.937,292.935 229.417 C 292.703 230.242,292.131 232.304,291.663 234.000 C 291.196 235.696,290.562 237.983,290.254 239.083 C 289.946 240.183,289.382 242.208,289.002 243.583 C 288.621 244.958,287.933 247.433,287.474 249.083 C 287.014 250.733,286.377 253.021,286.058 254.167 C 285.740 255.313,285.300 256.887,285.080 257.667 C 284.416 260.022,279.978 276.005,279.666 277.167 C 279.505 277.762,278.683 280.725,277.839 283.750 C 276.994 286.775,276.004 290.336,275.637 291.664 C 275.271 292.992,274.935 294.137,274.891 294.208 C 274.847 294.280,277.117 294.318,279.935 294.294 L 285.059 294.250 285.180 293.833 C 285.246 293.604,285.601 292.329,285.968 291.000 C 286.335 289.671,287.325 286.108,288.169 283.083 C 289.989 276.557,290.437 274.944,290.830 273.500 C 291.262 271.908,294.924 258.747,295.583 256.417 C 296.222 254.160,298.220 246.982,298.668 245.333 C 299.044 243.954,300.811 237.586,302.253 232.417 C 303.634 227.467,304.119 225.722,304.498 224.333 C 304.660 223.737,305.297 221.450,305.914 219.250 C 306.530 217.050,307.210 214.612,307.425 213.833 C 307.640 213.054,308.086 211.442,308.417 210.250 C 308.748 209.058,309.237 207.296,309.503 206.333 C 309.770 205.371,310.171 203.927,310.395 203.125 L 310.802 201.667 305.747 201.667 L 300.693 201.667 300.522 202.208 M75.000 225.350 C 69.179 228.107,63.892 230.610,63.250 230.913 C 60.430 232.243,58.770 233.029,56.667 234.032 C 55.429 234.622,45.323 239.406,34.208 244.662 L 14.000 254.220 14.000 256.909 L 14.000 259.599 19.542 262.209 C 22.590 263.644,25.908 265.205,26.917 265.677 C 27.925 266.149,31.225 267.701,34.250 269.124 C 37.275 270.548,40.350 271.993,41.083 272.335 C 41.817 272.678,43.092 273.275,43.917 273.663 C 44.742 274.051,47.217 275.214,49.417 276.248 C 51.617 277.281,56.529 279.589,60.333 281.376 C 64.137 283.163,67.813 284.888,68.500 285.210 C 69.188 285.531,71.662 286.693,74.000 287.793 C 76.337 288.893,78.737 290.021,79.333 290.298 C 79.929 290.576,81.317 291.231,82.417 291.752 C 83.517 292.274,84.735 292.840,85.125 293.011 L 85.833 293.321 85.833 287.405 L 85.833 281.488 85.125 281.181 C 84.735 281.013,81.942 279.712,78.917 278.291 C 75.892 276.870,71.729 274.918,69.667 273.954 C 59.810 269.348,52.834 266.084,46.208 262.978 C 44.031 261.958,41.537 260.790,40.667 260.383 C 39.796 259.976,37.778 259.031,36.183 258.283 L 33.283 256.923 35.100 256.054 C 36.099 255.576,47.921 249.988,61.370 243.634 L 85.824 232.083 85.829 226.208 C 85.831 222.977,85.777 220.334,85.708 220.335 C 85.640 220.336,80.821 222.592,75.000 225.350 M315.667 226.210 L 315.667 232.087 341.792 244.441 C 356.160 251.235,367.917 256.844,367.917 256.906 C 367.917 256.997,363.741 259.009,358.750 261.323 C 358.292 261.536,356.117 262.554,353.917 263.585 C 351.717 264.617,348.135 266.295,345.958 267.314 C 343.781 268.333,340.219 270.002,338.042 271.023 C 335.865 272.044,333.483 273.159,332.750 273.501 C 325.774 276.756,326.425 276.451,320.167 279.392 L 315.750 281.468 315.706 287.390 L 315.662 293.313 317.290 292.554 C 318.184 292.137,324.392 289.225,331.083 286.082 C 337.775 282.940,343.887 280.069,344.667 279.703 C 345.446 279.337,348.033 278.121,350.417 277.000 C 352.800 275.879,355.200 274.755,355.750 274.501 C 356.300 274.247,359.412 272.784,362.667 271.250 C 365.921 269.716,369.033 268.253,369.583 268.000 C 370.133 267.747,373.246 266.284,376.500 264.750 C 379.754 263.216,382.867 261.751,383.417 261.496 C 383.967 261.241,385.075 260.728,385.879 260.355 L 387.341 259.678 387.296 256.908 L 387.250 254.138 377.583 249.560 C 372.267 247.042,367.542 244.806,367.083 244.591 C 365.741 243.962,360.075 241.282,358.083 240.335 C 357.075 239.855,355.650 239.179,354.917 238.833 C 354.183 238.487,352.796 237.830,351.833 237.374 C 340.306 231.903,315.802 220.333,315.743 220.333 C 315.701 220.333,315.667 222.978,315.667 226.210 M110.333 270.745 L 110.333 283.823 111.875 285.021 C 131.714 300.445,154.373 301.824,186.917 289.590 C 203.862 283.220,210.151 281.667,219.000 281.667 C 231.258 281.667,239.735 285.205,253.204 295.946 L 256.167 298.308 256.167 285.581 L 256.167 272.854 254.542 271.442 C 239.610 258.460,219.962 254.898,195.667 260.768 C 189.287 262.310,183.387 264.216,173.667 267.875 C 162.803 271.964,162.797 271.966,160.882 272.483 C 143.535 277.167,127.251 272.684,112.051 259.042 C 111.209 258.285,110.478 257.667,110.426 257.667 C 110.375 257.667,110.333 263.552,110.333 270.745 " stroke="none" fill="#fbfbfb" fill-rule="evenodd"></path><path id="path1" d="M0.000 200.000 L 0.000 400.000 200.000 400.000 L 400.000 400.000 400.000 200.000 L 400.000 0.000 200.000 0.000 L 0.000 0.000 0.000 200.000 M189.183 101.679 C 191.674 108.855,193.191 113.215,194.864 118.000 C 195.232 119.054,195.671 120.329,195.839 120.833 C 196.922 124.076,203.165 141.887,203.249 141.971 C 203.305 142.028,206.254 142.128,209.801 142.195 C 213.348 142.262,221.650 142.430,228.250 142.570 C 234.850 142.709,243.287 142.873,247.000 142.933 C 250.713 142.993,253.853 143.097,253.978 143.164 C 254.135 143.248,253.564 143.769,252.145 144.840 C 251.011 145.695,248.396 147.679,246.333 149.248 C 244.271 150.817,240.558 153.633,238.083 155.505 C 235.608 157.376,232.421 159.792,231.000 160.872 C 227.662 163.411,223.077 166.881,218.167 170.587 C 216.012 172.212,214.113 173.672,213.945 173.830 C 213.597 174.160,213.083 172.334,219.196 192.500 C 220.222 195.888,221.823 201.187,223.236 205.875 C 224.738 210.858,226.328 216.100,227.345 219.417 C 228.409 222.888,228.469 223.148,228.152 222.898 C 228.023 222.795,225.329 220.915,222.167 218.718 C 215.922 214.381,198.302 202.119,191.083 197.088 C 188.608 195.362,186.504 193.949,186.407 193.948 C 186.310 193.946,184.360 195.247,182.074 196.839 C 179.787 198.431,175.479 201.429,172.500 203.502 C 165.636 208.276,156.594 214.566,149.777 219.309 C 146.859 221.339,144.451 223.000,144.425 223.000 C 144.375 223.000,145.319 219.806,146.667 215.417 C 147.145 213.858,147.632 212.246,147.748 211.833 C 147.864 211.421,148.351 209.808,148.831 208.250 C 149.311 206.692,149.798 205.079,149.914 204.667 C 150.030 204.254,150.516 202.642,150.993 201.083 C 151.470 199.525,152.341 196.656,152.929 194.708 C 154.484 189.558,156.038 184.418,157.276 180.333 C 159.219 173.920,159.172 174.101,158.952 173.899 C 158.841 173.798,157.325 172.640,155.583 171.326 C 153.842 170.011,151.667 168.364,150.750 167.665 C 149.833 166.966,147.058 164.863,144.583 162.992 C 142.108 161.121,138.007 158.013,135.469 156.086 C 132.931 154.160,128.083 150.483,124.694 147.917 C 121.273 145.325,118.619 143.204,118.725 143.146 C 118.831 143.089,122.104 142.991,126.000 142.929 C 129.896 142.868,138.108 142.709,144.250 142.577 C 150.392 142.444,158.079 142.295,161.333 142.245 C 164.587 142.195,167.786 142.114,168.440 142.065 L 169.631 141.975 170.058 140.696 C 170.293 139.992,171.960 135.179,173.762 130.000 C 175.565 124.821,177.362 119.646,177.755 118.500 C 178.149 117.354,178.957 115.029,179.551 113.333 C 180.145 111.638,181.878 106.650,183.402 102.250 C 184.926 97.850,186.211 94.146,186.257 94.018 C 186.394 93.641,186.387 93.624,189.183 101.679 M310.833 201.732 C 310.833 201.860,310.691 202.442,310.516 203.024 C 310.342 203.607,309.962 204.946,309.672 206.000 C 309.382 207.054,308.893 208.817,308.587 209.917 C 308.280 211.017,307.644 213.304,307.172 215.000 C 306.701 216.696,306.137 218.721,305.920 219.500 C 305.702 220.279,305.213 222.042,304.833 223.417 C 304.454 224.792,303.767 227.267,303.307 228.917 C 302.847 230.567,302.210 232.854,301.892 234.000 C 301.573 235.146,301.135 236.721,300.917 237.500 C 300.700 238.279,300.212 240.042,299.832 241.417 C 299.453 242.792,298.815 245.079,298.414 246.500 C 297.655 249.193,296.007 255.129,295.499 257.000 C 295.337 257.596,294.514 260.558,293.669 263.583 C 292.824 266.608,291.957 269.721,291.743 270.500 C 291.208 272.450,290.458 275.146,288.661 281.583 C 287.817 284.608,286.994 287.571,286.832 288.167 C 286.059 291.022,285.142 294.239,285.065 294.363 C 284.963 294.528,274.833 294.550,274.833 294.384 C 274.833 294.271,275.650 291.288,277.084 286.167 C 277.482 284.746,278.118 282.458,278.498 281.083 C 278.878 279.708,279.367 277.946,279.584 277.167 C 279.970 275.782,280.241 274.810,281.994 268.500 C 282.466 266.804,283.030 264.779,283.248 264.000 C 283.466 263.221,283.955 261.458,284.334 260.083 C 284.714 258.708,285.350 256.421,285.749 255.000 C 286.148 253.579,286.784 251.292,287.163 249.917 C 287.542 248.542,288.030 246.779,288.249 246.000 C 288.467 245.221,288.907 243.646,289.225 242.500 C 289.544 241.354,290.191 239.029,290.663 237.333 C 291.136 235.637,291.740 233.463,292.005 232.500 C 292.270 231.537,292.823 229.550,293.234 228.083 C 294.350 224.100,296.167 217.564,296.501 216.333 C 296.663 215.737,297.025 214.425,297.307 213.417 C 297.588 212.408,298.421 209.408,299.158 206.750 C 299.895 204.092,300.534 201.823,300.577 201.708 C 300.700 201.384,310.833 201.407,310.833 201.732 M85.960 226.094 L 85.917 232.021 85.500 232.261 C 85.271 232.393,84.033 232.997,82.750 233.604 C 81.467 234.210,79.704 235.044,78.833 235.457 C 77.962 235.870,76.650 236.489,75.917 236.832 C 73.454 237.983,71.931 238.704,69.355 239.939 C 67.946 240.614,66.770 241.167,66.743 241.167 C 66.715 241.167,65.393 241.790,63.804 242.552 C 62.216 243.313,54.737 246.856,47.184 250.425 L 33.451 256.913 35.101 257.694 C 36.008 258.124,38.700 259.389,41.083 260.506 C 45.765 262.699,46.539 263.061,50.083 264.709 C 51.367 265.306,53.092 266.111,53.917 266.499 C 55.374 267.184,59.043 268.902,61.750 270.167 C 62.483 270.509,64.246 271.334,65.667 272.000 C 67.087 272.666,68.850 273.490,69.583 273.832 C 71.283 274.625,77.517 277.547,82.250 279.770 L 85.917 281.492 85.960 287.413 C 85.994 291.935,85.957 293.333,85.804 293.333 C 85.694 293.333,83.387 292.290,80.677 291.015 C 74.192 287.965,73.516 287.647,67.167 284.668 C 64.188 283.270,58.600 280.645,54.750 278.834 C 50.900 277.024,47.225 275.298,46.583 274.999 C 45.942 274.700,43.429 273.519,41.000 272.374 C 38.571 271.230,36.133 270.087,35.583 269.834 C 35.033 269.581,31.921 268.119,28.667 266.586 C 25.412 265.053,22.001 263.450,21.086 263.024 C 20.171 262.599,18.221 261.683,16.753 260.989 L 14.083 259.729 14.038 256.941 L 13.992 254.154 16.121 253.143 C 18.485 252.020,19.607 251.490,23.750 249.538 C 25.308 248.804,27.558 247.737,28.750 247.168 C 29.942 246.599,31.367 245.923,31.917 245.667 C 32.467 245.410,33.892 244.736,35.083 244.168 C 37.344 243.091,78.347 223.692,82.417 221.774 C 83.700 221.169,84.938 220.567,85.167 220.436 C 86.036 219.938,86.007 219.735,85.960 226.094 M317.450 221.019 C 318.440 221.488,319.775 222.117,320.417 222.416 C 321.058 222.715,322.483 223.390,323.583 223.915 C 324.683 224.440,326.183 225.153,326.917 225.500 C 327.650 225.846,329.075 226.521,330.083 227.000 C 332.488 228.140,331.223 227.541,359.667 241.002 C 373.279 247.444,385.112 253.044,385.962 253.446 L 387.508 254.178 387.462 256.939 L 387.417 259.699 382.411 262.058 C 379.658 263.355,376.696 264.747,375.828 265.152 C 374.960 265.556,372.188 266.855,369.667 268.039 C 367.146 269.223,364.596 270.420,364.000 270.700 C 363.404 270.979,360.367 272.407,357.250 273.873 C 354.133 275.339,351.021 276.802,350.333 277.123 C 349.646 277.444,347.171 278.607,344.833 279.707 C 342.496 280.806,340.133 281.913,339.583 282.166 C 339.033 282.419,335.396 284.126,331.500 285.960 C 317.175 292.702,315.820 293.333,315.661 293.333 C 315.560 293.333,315.500 291.119,315.500 287.409 L 315.500 281.485 316.875 280.848 C 317.631 280.498,318.925 279.893,319.750 279.503 C 320.575 279.113,323.462 277.761,326.167 276.499 C 328.871 275.236,332.396 273.587,334.000 272.833 C 335.604 272.080,337.367 271.255,337.917 271.000 C 338.467 270.745,340.229 269.920,341.833 269.167 C 343.438 268.413,345.200 267.588,345.750 267.333 C 346.300 267.078,348.063 266.253,349.667 265.500 C 351.271 264.747,353.033 263.922,353.583 263.668 C 354.133 263.413,356.571 262.272,359.000 261.132 C 361.429 259.991,364.445 258.580,365.702 257.995 C 366.959 257.411,367.972 256.918,367.952 256.901 C 367.933 256.883,366.717 256.307,365.250 255.620 C 362.691 254.421,361.956 254.072,356.770 251.602 C 355.498 250.996,354.437 250.500,354.414 250.500 C 354.391 250.500,353.107 249.893,351.561 249.151 C 350.015 248.409,348.300 247.591,347.750 247.333 C 347.200 247.075,345.850 246.436,344.750 245.913 C 343.650 245.390,342.150 244.680,341.417 244.336 C 338.230 242.842,337.277 242.392,334.917 241.265 C 333.542 240.608,328.611 238.274,323.959 236.077 L 315.501 232.083 315.501 226.125 C 315.500 222.848,315.534 220.167,315.575 220.167 C 315.616 220.167,316.460 220.550,317.450 221.019 M113.917 260.546 C 129.112 273.331,145.013 277.115,162.167 272.029 C 163.228 271.714,164.721 271.162,175.000 267.286 C 185.520 263.320,193.271 261.011,201.083 259.519 C 223.021 255.328,242.477 259.843,255.375 272.118 L 256.333 273.030 256.333 285.682 C 256.333 293.496,256.273 298.333,256.176 298.333 C 256.090 298.333,255.546 297.937,254.968 297.452 C 237.667 282.948,225.064 279.170,207.109 283.108 C 201.375 284.365,197.912 285.512,184.417 290.619 C 154.919 301.783,131.680 300.088,112.208 285.354 L 110.333 283.936 110.333 270.705 L 110.333 257.474 111.125 258.168 C 111.560 258.550,112.817 259.620,113.917 260.546 " stroke="none" fill="#040464" fill-rule="evenodd"></path><path id="path2" d="M162.625 142.290 C 163.106 142.323,163.894 142.323,164.375 142.290 C 164.856 142.256,164.462 142.228,163.500 142.228 C 162.537 142.228,162.144 142.256,162.625 142.290 M208.458 142.290 C 208.940 142.323,209.727 142.323,210.208 142.290 C 210.690 142.256,210.296 142.228,209.333 142.228 C 208.371 142.228,207.977 142.256,208.458 142.290 M154.958 142.451 C 155.165 142.491,155.502 142.491,155.708 142.451 C 155.915 142.411,155.746 142.379,155.333 142.379 C 154.921 142.379,154.752 142.411,154.958 142.451 M217.125 142.451 C 217.331 142.491,217.669 142.491,217.875 142.451 C 218.081 142.411,217.912 142.379,217.500 142.379 C 217.088 142.379,216.919 142.411,217.125 142.451 M145.794 142.618 C 146.001 142.658,146.301 142.656,146.460 142.615 C 146.620 142.573,146.450 142.540,146.083 142.542 C 145.717 142.544,145.586 142.578,145.794 142.618 M226.294 142.618 C 226.501 142.658,226.801 142.656,226.960 142.615 C 227.120 142.573,226.950 142.540,226.583 142.542 C 226.217 142.544,226.086 142.578,226.294 142.618 M137.794 142.785 C 138.001 142.824,138.301 142.823,138.460 142.781 C 138.620 142.739,138.450 142.707,138.083 142.709 C 137.717 142.711,137.586 142.745,137.794 142.785 M234.460 142.785 C 234.668 142.824,234.968 142.823,235.127 142.781 C 235.286 142.739,235.117 142.707,234.750 142.709 C 234.383 142.711,234.253 142.745,234.460 142.785 M129.875 142.955 C 130.219 142.991,130.781 142.991,131.125 142.955 C 131.469 142.919,131.188 142.889,130.500 142.889 C 129.813 142.889,129.531 142.919,129.875 142.955 M241.708 142.955 C 242.052 142.991,242.615 142.991,242.958 142.955 C 243.302 142.919,243.021 142.889,242.333 142.889 C 241.646 142.889,241.365 142.919,241.708 142.955 M121.788 143.120 C 122.084 143.157,122.609 143.158,122.955 143.122 C 123.300 143.086,123.058 143.055,122.417 143.055 C 121.775 143.054,121.492 143.083,121.788 143.120 M249.788 143.120 C 250.084 143.157,250.609 143.158,250.955 143.122 C 251.300 143.086,251.058 143.055,250.417 143.055 C 249.775 143.054,249.492 143.083,249.788 143.120 M315.575 226.167 C 315.575 229.421,315.597 230.752,315.625 229.125 C 315.652 227.498,315.652 224.835,315.625 223.208 C 315.597 221.581,315.575 222.912,315.575 226.167 M387.402 256.917 C 387.401 258.475,387.426 259.135,387.457 258.383 C 387.488 257.631,387.488 256.356,387.458 255.550 C 387.427 254.743,387.402 255.358,387.402 256.917 M146.292 274.290 C 146.865 274.323,147.802 274.323,148.375 274.290 C 148.948 274.258,148.479 274.231,147.333 274.231 C 146.188 274.231,145.719 274.258,146.292 274.290 M315.576 281.543 C 315.532 281.658,315.515 284.376,315.540 287.584 L 315.584 293.417 315.667 287.375 C 315.713 284.052,315.729 281.333,315.703 281.333 C 315.677 281.333,315.620 281.428,315.576 281.543 " stroke="none" fill="#8484b4" fill-rule="evenodd"></path><path id="path3" d="M153.875 142.448 C 154.035 142.490,154.298 142.490,154.458 142.448 C 154.619 142.406,154.487 142.372,154.167 142.372 C 153.846 142.372,153.715 142.406,153.875 142.448 M218.375 142.448 C 218.535 142.490,218.798 142.490,218.958 142.448 C 219.119 142.406,218.987 142.372,218.667 142.372 C 218.346 142.372,218.215 142.406,218.375 142.448 " stroke="none" fill="#7474ac" fill-rule="evenodd"></path></g></svg>
