<?xml version="1.0" standalone="no"?>
<!DOCTYPE svg PUBLIC "-//W3C//DTD SVG 20010904//EN"
 "http://www.w3.org/TR/2001/REC-SVG-20010904/DTD/svg10.dtd">
<svg version="1.0" xmlns="http://www.w3.org/2000/svg"
 width="120.000000pt" height="120.000000pt" viewBox="0 0 120.000000 120.000000"
 preserveAspectRatio=true>
<metadata>
Created by potrace 1.15, written by Peter Selinger 2001-2017
</metadata>
<g transform="translate(0.000000,120.000000) scale(0.100000,-0.100000)"
fill="#000000" stroke="none">
<path d="M0 900 l0 -900 900 0 900 0 0 900 0 900 -900 0 -900 0 0 -900z m936
260 l79 -5 -63 -45 c-67 -49 -65 -42 -38 -133 17 -54 15 -54 -59 1 l-39 30
-55 -39 c-30 -21 -56 -37 -58 -35 -2 1 6 32 16 67 11 35 17 66 12 69 -62 40
-111 77 -111 83 0 4 33 7 74 7 l74 0 17 53 c9 28 19 59 22 67 3 9 15 -13 27
-50 l23 -65 79 -5z m391 -124 c-3 -7 -33 -99 -68 -205 -51 -157 -65 -191 -80
-191 -11 0 -19 3 -19 7 0 5 101 322 125 391 2 6 14 12 26 12 14 0 19 -5 16
-14z m-897 -114 c0 -27 -8 -32 -105 -78 l-105 -49 105 -45 c103 -44 105 -46
105 -78 0 -19 -4 -32 -9 -30 -87 34 -321 146 -321 154 0 10 292 151 318 153 7
1 12 -11 12 -27z m1112 -42 c84 -38 154 -75 156 -83 2 -8 -55 -38 -154 -82
-86 -39 -160 -72 -166 -74 -5 -2 -8 11 -6 30 3 31 7 35 107 78 l104 46 -106
49 c-99 46 -107 52 -107 78 0 15 4 28 9 28 5 0 78 -31 163 -70z m-925 -149
c41 -16 95 -7 192 31 88 35 153 35 214 -1 33 -20 37 -28 37 -62 0 -21 -2 -39
-4 -39 -2 0 -24 11 -47 25 -58 33 -106 32 -209 -5 -95 -33 -153 -37 -207 -15
-57 24 -73 43 -73 87 l0 39 33 -24 c17 -13 46 -29 64 -36z"/>
</g>
</svg>
